<svg width="261" height="69" viewBox="0 0 261 69" fill="none" xmlns="http://www.w3.org/2000/svg">
<rect width="261" height="69" fill="white"/>
<g clip-path="url(#clip0_1_2)">
<path d="M189.257 9.95687L189.089 10.5488C186.698 10.5914 185.17 11.8249 184.722 15.0549L180.253 43.8041C179.861 46.5511 180.617 48.0084 182.572 48.1236L182.407 48.7155L172.239 48.6734L172.404 48.0815C174.416 48.0373 176 46.5876 176.382 44.0045L181.412 13.3181L172.866 28.5281C172.045 30.0881 171.112 31.7002 170.182 33.367L167.936 37.3503L164.978 42.7785C163.608 45.2944 163.058 46.7631 163.053 48.0491C161.801 48.4196 160.595 48.9206 159.458 49.543L155.746 12.8336L147.466 43.0233C146.366 46.2506 147.719 47.8175 150.817 47.9922L150.652 48.584L140.321 48.5413L140.486 47.9494C143.369 47.9088 145.334 46.2463 146.434 43.0715L154.159 15.0377C155.204 12.0244 154.288 10.4572 151.298 10.3923L151.408 9.80018L159.292 9.83282L163.012 44.5964L167.942 35.8877L172.26 28.1495C177.255 19.2267 180.104 13.9053 180.818 12.246C181.143 11.4986 181.401 10.7265 181.591 9.93774L189.257 9.95687Z" fill="#040506"/>
<path d="M219.901 21.16L219.241 21.1573C219.032 18.7315 218.419 14.7636 217.824 13.7378C217.231 12.6574 216.202 11.8987 214.678 11.4133C213.225 10.9092 210.84 10.6892 207.515 10.6755L201.159 10.6492L197.337 26.2045L204.676 26.2348C208.374 26.2502 210.011 24.9121 210.839 22.0576L211.5 22.0604L209.169 31.3177L208.569 31.3152C209.243 27.9243 208.317 26.9013 204.455 26.8853L197.169 26.8552L192.193 47.0371C193.876 47.7438 196.149 48.1315 199.04 48.1435C202.955 48.1597 206.285 47.5262 208.51 46.2914C210.734 45.0566 214.108 40.8511 216.25 37.0985L216.956 37.1014L210.083 49.471C208.508 49.0345 206.333 48.8096 203.56 48.7968L184.899 48.7195L185.066 48.1276C187.295 47.9751 188.55 46.9044 189.215 44.106L196.522 14.5112C197.194 11.7128 196.483 10.7391 194.309 10.5704L194.474 9.97847L211.546 10.0491C214.864 10.0629 217.421 9.69522 219.11 9.00246L219.901 21.16Z" fill="#040506"/>
<path d="M257.662 10.24L257.549 10.8322C254.503 10.8721 252.923 12.2672 251.818 16.5725L245.185 42.6188C244.693 44.3518 244.723 46.1818 245.269 47.8999C244.014 48.4875 242.842 49.2248 241.782 50.094L228.098 14.8037L222.074 42.3067C221.133 46.1273 222.269 48.124 225.476 48.3538L225.365 48.8913L214.326 48.8456L214.435 48.3081C217.809 48.1602 219.995 46.1225 220.987 42.3022L226.836 17.0596C227.889 12.9158 226.755 10.8098 223.545 10.6893L223.712 10.0974L230.509 10.1255L243.979 44.4483L250.891 16.5708C251.835 12.5337 250.863 10.9663 247.545 10.7929L247.656 10.2007L257.662 10.24Z" fill="#040506"/>
<path d="M114.92 9.64913L114.752 10.241C112.36 10.2837 110.833 11.5171 110.386 14.7472L105.914 43.4964C105.524 46.2433 106.28 47.7006 108.235 47.8159L108.07 48.4078L97.9023 48.3657L98.0676 47.7738C100.079 47.7296 101.663 46.2799 102.045 43.6968L107.075 13.0104L98.5292 28.2204C97.7065 29.7804 96.7755 31.3925 95.8445 33.0592L93.5991 37.0425L90.6412 42.4707C89.271 44.9867 88.7214 46.4554 88.716 47.7414C87.4639 48.1119 86.2584 48.6129 85.121 49.2353L81.409 12.5259L73.1294 42.7155C72.0291 45.9429 73.3824 47.5098 76.4799 47.6844L76.3146 48.2763L65.9839 48.2335L66.1492 47.6416C69.0319 47.601 70.9971 45.9386 72.095 42.7638L79.8222 14.7299C80.8668 11.7167 79.9513 10.1495 76.959 10.0846L77.0714 9.49244L84.9554 9.52508L88.6753 44.2887L93.6051 35.58L97.9322 27.8418C102.918 18.919 105.767 13.5975 106.481 11.9383C106.806 11.1913 107.064 10.419 107.252 9.62999L114.92 9.64913Z" fill="#040506"/>
<path d="M145.565 20.8523L144.905 20.8495C144.695 18.4237 144.082 14.4559 143.488 13.4301C142.894 12.3496 141.862 11.5909 140.342 11.1055C138.887 10.6015 136.494 10.3814 133.178 10.3677L126.815 10.3414L123.01 25.8946L130.35 25.925C134.049 25.9403 135.685 24.6022 136.513 21.7478L137.173 21.7505L134.842 31.01L134.244 31.0075C134.918 27.6166 133.991 26.5936 130.13 26.5776L122.833 26.5474L117.856 46.7252C119.538 47.4319 121.812 47.8195 124.703 47.8315C128.618 47.8477 131.947 47.2143 134.173 45.9795C136.398 44.7447 139.771 40.5391 141.912 36.7865L142.619 36.7894L135.746 49.159C134.173 48.7225 131.999 48.4976 129.225 48.4848L110.566 48.4076L110.733 47.8157C112.963 47.6631 114.217 46.5924 114.882 43.794L122.182 14.195C122.854 11.3967 122.143 10.4229 119.968 10.2542L120.135 9.66229L137.208 9.73297C140.526 9.74671 143.082 9.37903 144.77 8.68627L145.565 20.8523Z" fill="#040506"/>
</g>
<g clip-path="url(#clip1_1_2)">
<mask id="mask0_1_2" style="mask-type:luminance" maskUnits="userSpaceOnUse" x="0" y="0" width="78" height="64">
<path d="M78 0H0V64H78V0Z" fill="white"/>
</mask>
<g mask="url(#mask0_1_2)">
<path d="M18.0136 48.3627C20.2262 48.1984 21.6625 46.8309 22.2644 44.1515L29.5687 14.2357C30.24 11.5563 29.5128 10.3509 27.2466 10.1824L27.4122 9.58081H37.8084L37.6428 10.1824C35.3764 10.2357 34.1035 11.1659 33.3922 14.2357L26.0854 44.2069C25.4143 46.8309 26.4725 48.1984 28.4076 48.3627L28.2421 48.9643H17.8482L18.0136 48.3627Z" fill="#040506"/>
<path d="M56.9318 48.3627C59.1444 48.1984 60.5806 46.8309 61.1824 44.1515L68.4869 14.2357C69.158 11.5563 68.431 10.3509 66.1646 10.1824L66.3325 9.58081H76.7354L76.5698 10.1824C74.3035 10.2357 73.0328 11.1659 72.3191 14.2357L65.0036 44.2069C64.3324 46.8309 65.3905 48.1984 67.3257 48.3627L67.1602 48.9643H56.7663L56.9318 48.3627Z" fill="#040506"/>
<path d="M63.9474 2.10571C63.3009 3.35158 62.5335 3.82305 61.7372 3.82305C60.3948 3.82305 60.2136 3.19585 58.3813 2.14625C56.1866 0.900383 53.7258 -0.0574826 51.1396 0.000117424C49.3755 0.0346281 47.6519 0.510614 46.1417 1.38038C44.4773 2.33075 43.1521 3.73732 42.3385 5.41665C41.4011 7.37718 41.3094 9.44225 41.6874 11.5393C42.1483 14.0992 43.1214 16.4971 44.1215 18.8907C45.5891 22.3936 47.135 25.8688 48.5109 29.4059C49.9025 32.9814 50.6898 36.6784 50.4103 40.5355C50.2313 42.9995 49.8622 45.4294 49.0545 47.7888C46.7211 54.5963 42.0812 59.1766 34.9892 61.6832C29.3404 63.6779 24.0965 63.8806 18.3358 62.2144C11.4406 60.2219 6.96404 56.1494 4.79173 49.5808C3.67312 46.2187 3.67312 42.7904 4.35771 39.3579C5.22127 34.9867 7.08708 31.0848 10.4541 27.9296C12.4205 26.0843 14.7047 24.7915 17.3669 24.2006L17.5124 23.7291C17.2238 23.7803 16.9374 23.84 16.6556 23.9126C11.5816 25.2288 7.36225 27.823 4.17648 31.8059C-0.116672 37.1648 -1.04958 43.136 1.14734 49.4934C2.73126 54.0843 5.96177 57.4806 10.2348 59.9936C13.6936 62.0246 17.4766 63.1808 21.4924 63.6907C24.8235 64.1174 27.6044 64.143 30.8997 63.4902C39.8172 61.7195 46.7078 57.184 51.2917 49.6235C53.29 46.3141 54.3977 42.5843 54.5155 38.767C54.6229 36.0939 54.0859 33.5168 53.3254 30.9696C52.2336 27.3216 50.6831 23.8336 49.1843 20.3286C47.8889 17.3056 46.6115 14.272 45.4145 11.2108C44.7435 9.46998 44.2601 7.66305 44.4817 5.76438C44.6451 4.38198 45.2044 3.18518 46.3184 2.26358C48.0723 0.812917 50.6853 0.544117 52.9091 0.855583C55.0375 1.16542 56.9596 2.24302 58.2785 3.86571C58.5842 4.23944 58.8602 4.63451 59.104 5.04758C60.547 7.48385 61.0011 10.5153 60.3568 14.1312L60.9899 14.208L64.3658 2.15691L63.9474 2.10571Z" fill="#040506"/>
</g>
</g>
<defs>
<clipPath id="clip0_1_2">
<rect width="192.442" height="63.0404" fill="white" transform="translate(65.261) rotate(0.237198)"/>
</clipPath>
<clipPath id="clip1_1_2">
<rect width="78" height="64" fill="white"/>
</clipPath>
</defs>
</svg>
